<svg xmlns="http://www.w3.org/2000/svg" viewBox="0 0 200 200" class="teddy-logo">
    <g fill="var(--logo-primary, #800020)" stroke="var(--logo-primary, #800020)" stroke-width="0.5">
  <path d="M24 156.05 c0 -0.30 -0.55 -0.55 -1.20 -0.55 -0.65 0 -2.95 -0.90 -5.10 -1.95 -5.10 -2.55 -10.60 -7.55 -12.35 -11.15 -2.80 -5.85 -3.35 -7.30 -3.05 -8.05 0.15 -0.40 -0.05 -1.40 -0.45 -2.20 -0.50 -1 -0.70 -3.20 -0.75 -7.65 0 -7 0.60 -9.45 3.05 -12.85 1.45 -2.10 4.75 -4.65 5.90 -4.65 0.35 0 1.05 -0.35 1.50 -0.80 0.50 -0.45 1.55 -0.90 2.30 -1 0.95 -0.05 2 -0.85 3.15 -2.25 3.45 -4.20 8.30 -9.10 11.40 -11.45 2.65 -2.05 4.45 -3.05 10.70 -6.10 0.50 -0.20 1.35 -0.40 1.85 -0.40 0.55 0 1.15 -0.20 1.30 -0.50 0.15 -0.25 1.05 -0.50 2 -0.50 2.60 0 2.45 -1.15 -0.45 -3.65 -4.65 -4 -12.25 -15.25 -12.30 -18.10 0 -0.55 -0.35 -1.55 -0.80 -2.15 -0.45 -0.65 -0.70 -1.30 -0.55 -1.45 0.15 -0.15 0 -1.10 -0.40 -2.10 -1.40 -3.70 -1.80 -12.55 -0.85 -18.55 0.35 -2.05 0.75 -4.55 0.90 -5.55 0.25 -1.65 0.05 -2.05 -2.45 -4.85 -3.10 -3.55 -3.55 -4.85 -3.35 -10.30 0.15 -4.80 1.15 -7.40 4.10 -10.60 3.15 -3.45 6.30 -4.70 11.95 -4.70 3.75 0 4.95 0.20 7.15 1.25 1.45 0.70 3.05 1.70 3.55 2.25 1.05 1.15 2.95 1.30 4.80 0.30 0.75 -0.35 2.55 -0.95 4 -1.30 1.50 -0.35 3.10 -0.80 3.55 -1.05 0.50 -0.25 1.75 -0.45 2.80 -0.45 1.05 0 2.15 -0.25 2.45 -0.55 0.55 -0.55 23.50 -0.35 26.40 0.20 3.05 0.60 7.05 1.75 9.65 2.80 3.55 1.40 4.20 1.35 6.90 -0.70 1.25 -0.95 2.70 -1.75 3.20 -1.75 0.50 0 1.10 -0.25 1.25 -0.50 0.20 -0.35 2.30 -0.50 5.30 -0.45 6 0.10 8.60 1.15 12 4.75 2.65 2.90 5.05 8.50 4.90 11.50 -0.15 2.85 -2 6.65 -4.85 9.90 -2.40 2.75 -2.50 2.90 -2 4.70 0.25 1 0.70 2.05 0.95 2.30 0.25 0.30 0.45 1.80 0.45 3.40 0 1.60 0.20 2.90 0.50 2.90 0.30 0 0.50 1.15 0.50 2.50 0 1.40 -0.15 2.50 -0.35 2.50 -0.25 0 -0.45 1.75 -0.55 3.90 -0.10 2.10 -0.40 3.95 -0.65 4 -0.25 0.10 -0.35 0.35 -0.20 0.60 0.95 1.55 -5.05 14.50 -9.05 19.40 -3.90 4.80 -6.05 7.10 -6.60 7.10 -0.80 0 -1.15 0.80 -0.80 1.70 0.20 0.50 0.90 0.80 2 0.80 0.90 0 2.30 0.25 3.05 0.55 0.75 0.30 1.85 0.75 2.40 0.90 2.60 0.95 7.25 3.50 9.85 5.45 3.20 2.40 8.95 8.40 10.70 11.20 0.95 1.45 2.25 2.40 6.45 4.45 4.65 2.25 5.55 2.90 7.35 5.30 2.60 3.55 2.90 4.75 2.90 11.90 0 11.80 -3.05 19.30 -10.25 25.50 -3.10 2.65 -3.95 3.20 -6.75 4.55 -0.95 0.45 -2.35 1.15 -3.10 1.50 -0.70 0.40 -1.65 0.55 -2.05 0.40 -0.40 -0.15 -0.90 -0.05 -1.10 0.25 -0.45 0.80 -10.90 0.70 -11.65 -0.05 -0.35 -0.35 -0.60 -0.45 -0.60 -0.25 0 0.80 -5.35 -2.40 -7.75 -4.65 l-2.55 -2.45 -1.80 1.75 c-1 0.95 -2.05 1.70 -2.35 1.70 -0.25 0 -0.70 0.30 -0.90 0.65 -0.50 0.80 -4.40 2.40 -4.85 2 -0.15 -0.15 -0.60 0 -1 0.30 -0.40 0.35 -1.85 0.65 -3.30 0.65 -1.40 0.05 -2.65 0.25 -2.80 0.50 -0.15 0.20 -7.35 0.40 -16 0.40 -14.85 0 -22.25 -0.50 -23.40 -1.55 -0.30 -0.25 -0.95 -0.45 -1.45 -0.45 -1.40 0 -5.85 -2.45 -7.85 -4.35 l-1.75 -1.60 -2.75 2.75 c-1.50 1.50 -3.30 2.85 -4 3.05 -0.70 0.15 -1.65 0.65 -2.20 1.10 -0.70 0.60 -2.30 0.85 -7.35 0.95 -4.40 0.15 -6.45 0 -6.45 -0.35z m9.25 -5.55 c0.15 -0.25 0.70 -0.50 1.20 -0.50 1.05 0 3.55 -1.10 3.55 -1.60 0 -0.25 0.25 -0.40 0.55 -0.40 1.25 0 4.55 -5.10 5.70 -8.80 0.95 -3.10 0.95 -8.35 0 -11.05 -0.40 -1.15 -0.60 -2.50 -0.40 -2.95 0.15 -0.45 0.05 -0.95 -0.20 -1.15 -0.25 -0.15 -1.25 -2.65 -2.20 -5.50 -1.35 -4.20 -2.15 -5.70 -3.85 -7.65 -1.80 -1.95 -2.50 -2.40 -3.85 -2.40 -0.95 0 -1.85 -0.20 -2 -0.50 -0.40 -0.60 -2.25 -0.65 -2.25 -0.05 0 0.25 -1.40 0.55 -3.10 0.75 -1.75 0.20 -3.65 0.35 -4.25 0.45 -0.60 0.05 -1.25 0.25 -1.45 0.50 -0.20 0.20 -0.95 0.35 -1.70 0.35 -0.75 0 -2 0.30 -2.80 0.70 -0.80 0.40 -2.50 1.20 -3.80 1.75 -4.30 1.85 -6 6.90 -4.95 14.80 0.30 2.20 0.65 4.70 0.75 5.50 0.35 2.90 2.35 7.15 4.35 9.45 3.35 3.80 9.75 7.75 12.95 7.95 1.10 0.05 2.10 0.30 2.30 0.50 0.55 0.55 5.10 0.40 5.45 -0.15z m101 0 c0.15 -0.25 0.90 -0.50 1.65 -0.50 2 0 7.50 -2.90 10.30 -5.50 4.35 -4 6.30 -7.90 7 -13.75 0.10 -1.10 0.50 -2.85 0.80 -3.95 1.05 -3.45 0.10 -8.50 -2.20 -11.95 -1.10 -1.60 -4.65 -3.85 -6.20 -3.85 -0.55 0 -1.15 -0.20 -1.30 -0.40 -0.10 -0.20 -0.95 -0.45 -1.85 -0.50 -0.90 -0.10 -2.25 -0.40 -2.95 -0.75 -0.70 -0.35 -2.80 -0.70 -4.75 -0.80 -1.90 -0.05 -3.80 -0.40 -4.15 -0.70 -0.50 -0.40 -0.95 -0.40 -1.55 0 -0.45 0.30 -1.55 0.70 -2.40 0.85 -1.70 0.40 -3.85 2.25 -4.90 4.35 -1.15 2.20 -2.75 6.65 -2.75 7.70 0 0.55 -0.35 1.45 -0.75 1.95 -0.40 0.55 -0.75 1.60 -0.75 2.40 0 0.75 -0.20 1.40 -0.45 1.40 -0.25 0 -0.40 0.30 -0.40 0.65 0.05 0.30 -0.15 2.15 -0.35 4 -0.45 3.80 0.65 9.85 2.10 11.50 0.40 0.45 0.60 0.85 0.40 0.85 -0.20 0 0.10 0.65 0.70 1.50 1.25 1.75 4.95 4.50 7.15 5.30 2 0.75 7.20 0.85 7.60 0.20z m-32.35 -0.90 c0.45 -0.25 1.40 -0.75 2.10 -1.10 0.70 -0.40 1.95 -1.10 2.85 -1.55 2.60 -1.35 4.35 -3.70 3.90 -5.35 -0.50 -1.90 -0.60 -15.30 -0.10 -15.65 0.20 -0.15 0.45 -1 0.50 -1.85 0.05 -0.90 0.25 -1.60 0.50 -1.60 0.20 0 0.35 -0.40 0.35 -0.85 0 -0.90 1.75 -6.20 2.60 -8 0.40 -0.85 0.40 -1.50 0 -2.40 -0.35 -0.70 -0.60 -1.80 -0.60 -2.45 0 -0.60 -0.70 -2.40 -1.50 -3.90 -1.20 -2.20 -1.40 -3.05 -1.05 -4 1.20 -3.15 3.80 -3.05 5.90 0.25 0.75 1.15 1.30 2.25 1.25 2.45 -0.05 0.15 0.25 0.55 0.65 0.90 0.55 0.45 1.05 0.45 2.25 -0.05 0.80 -0.40 1.50 -0.85 1.50 -1.05 0 -0.25 0.50 -0.40 1.15 -0.40 0.65 0 1.40 -0.25 1.75 -0.60 0.35 -0.35 2.15 -0.55 4.60 -0.50 2.20 0 4.10 -0.15 4.25 -0.40 0.25 -0.40 -4.60 -4.85 -7.55 -6.90 -2.40 -1.65 -7.35 -4.10 -8.30 -4.10 -0.45 0 -0.95 -0.20 -1.10 -0.45 -0.15 -0.20 -1.65 -0.70 -3.35 -1.05 -2.65 -0.60 -4.30 -0.70 -7.90 -0.55 -0.50 0.05 -1.70 0.60 -2.70 1.25 -0.95 0.65 -1.90 1.10 -2 0.95 -0.15 -0.15 -0.90 0.10 -1.70 0.50 -1.75 0.90 -6.65 2.35 -8.05 2.35 -0.55 0 -1.15 0.20 -1.30 0.40 -0.45 0.75 -11.40 1.05 -17.30 0.50 -4.75 -0.45 -12.15 -2.65 -16.20 -4.80 -2.50 -1.30 -5.15 -1.55 -8.70 -0.75 -1.85 0.40 -3.55 0.95 -3.80 1.20 -0.30 0.25 -0.95 0.45 -1.55 0.45 -0.60 0 -1.50 0.35 -2.05 0.75 -0.50 0.40 -1.30 0.75 -1.70 0.75 -1.75 0 -13 8.20 -13 9.45 0 0.15 1.85 0.35 4.15 0.45 2.25 0.10 4.30 0.40 4.55 0.65 0.30 0.25 0.95 0.45 1.45 0.45 0.50 0 1.60 0.45 2.40 1.05 1.90 1.35 2.70 1 3.95 -1.75 1.95 -4.10 4.15 -4.85 6.20 -2.15 l1.05 1.40 -1.35 2.60 c-0.70 1.45 -1.70 3.85 -2.15 5.40 -0.75 2.55 -0.80 3 -0.05 5.10 0.45 1.30 1 2.75 1.25 3.20 0.85 1.75 1.65 4.45 1.85 6.10 0.10 0.90 0.35 1.90 0.60 2.25 1.10 1.45 1.10 11.70 -0.05 14.35 -0.70 1.75 -0.70 1.85 0.50 3.35 1.65 2.15 6.20 5.10 7.85 5.10 0.70 0 1.30 0.25 1.30 0.50 0 0.60 40.60 0.70 41.90 0.10z m-17.40 -61.70 c0.70 -0.30 4.50 -1 9.65 -1.75 1 -0.15 2 -0.45 2.15 -0.70 0.15 -0.25 0.70 -0.45 1.25 -0.45 1.15 0 1.80 -0.30 7.95 -3.85 4.55 -2.60 12.80 -10.90 15.30 -15.40 4.70 -8.40 6.20 -13.60 6.20 -21.15 0 -4.75 -0.20 -5.85 -1.60 -9.85 -2.70 -7.65 -5.95 -12.65 -11.10 -16.90 -3.10 -2.50 -10.95 -6.85 -12.50 -6.85 -0.40 0 -0.90 -0.20 -1.05 -0.50 -0.15 -0.25 -1 -0.50 -1.80 -0.50 -0.85 0 -1.95 -0.25 -2.55 -0.55 -0.55 -0.30 -3.30 -0.85 -6.05 -1.25 -5.55 -0.85 -19.65 -0.60 -21.35 0.30 -0.50 0.30 -1.70 0.50 -2.60 0.50 -0.95 0 -1.90 0.20 -2.20 0.50 -0.25 0.25 -1.90 0.85 -3.65 1.30 -1.80 0.45 -3.60 1 -4 1.20 -0.45 0.20 -1.60 0.75 -2.55 1.20 -9.55 4.45 -16.55 13.35 -18.65 23.80 -1.10 5.30 -1 12.35 0.25 17.25 0.55 2.20 1.25 4.30 1.50 4.65 0.30 0.30 0.40 0.60 0.20 0.60 -0.15 0 0.40 1.40 1.25 3.15 3.35 6.60 9.50 13.55 15.70 17.55 1.65 1.05 3.60 2.35 4.35 2.85 0.75 0.55 1.70 0.95 2.10 0.95 0.40 0 0.90 0.25 1.05 0.50 0.15 0.30 0.85 0.50 1.50 0.50 0.65 0 1.30 0.20 1.45 0.45 0.15 0.25 1 0.55 1.90 0.70 3.80 0.60 10.55 1.85 10.70 1.95 0.25 0.30 6.45 0.10 7.20 -0.20z m-49.50 -66 c1.25 -2.25 8.65 -9.90 9.55 -9.90 0.70 0 1.95 -1.30 1.95 -2 0 -0.30 -1.05 -1 -2.35 -1.55 -3.80 -1.60 -8.95 -0.75 -11.20 1.85 -3.70 4.35 -4.25 9.45 -1.35 13.10 0.95 1.15 2.20 0.60 3.40 -1.50z m94.40 1.45 c0.30 -0.30 0.60 -0.95 0.70 -1.35 0.10 -0.40 0.40 -0.90 0.65 -1.10 0.75 -0.55 0.40 -5.65 -0.55 -7.50 -1.85 -3.65 -4.35 -5.35 -8.40 -5.75 -2 -0.20 -3.05 0 -4.70 0.85 -1.15 0.60 -2.20 1.30 -2.35 1.50 -0.15 0.20 0.55 1.05 1.50 1.85 4.45 3.55 6.45 5.50 8.80 8.70 2.55 3.45 3.40 4 4.35 2.80z"/>
  <path d="M78 73.75 c-0.40 -0.45 -0.55 -2 -0.40 -4.35 l0.15 -3.65 -4 -0.25 c-4.95 -0.30 -6.10 -0.90 -5.95 -3 0.05 -0.90 0.30 -1.80 0.55 -2.05 0.25 -0.25 5.70 -0.40 12.40 -0.35 l11.95 0.15 0.75 1.35 c0.75 1.30 0.70 1.40 -0.70 2.60 -1.25 1.05 -2.05 1.30 -5.25 1.40 l-3.75 0.15 -0.15 3.75 c-0.10 2.80 -0.35 3.90 -0.95 4.40 -1.15 0.85 -3.90 0.75 -4.65 -0.15z"/>
 </g>
</svg>